# xmcd
#
# Track frame offsets:
# 150
# 14361
# 22459
# 33976
# 48444
# 59643
# 78474
# 97269
# 114274
# 126817
# 139051
# 149362
#
# Disc length: 2184 seconds
#
#
# Revision: 0
# Processed by: cddbd v1.5PL3 Copyright (c) Steve Scherf et al.
# Submitted via: FreeRIP 2.60 
#
DISCID=af08860c
DTITLE=Richard Carr and The Gemtones - Acoustic
DYEAR=1900
DGENRE=Blues
TTITLE0=Mind Is On Vacation
TTITLE1=Ain't Misbehavin
TTITLE2=Empty Arms
TTITLE3=Sweet Home Chicago
TTITLE4=Sweet Man
TTITLE5=Rack 'Em Up
TTITLE6=Rock This House
TTITLE7=That's Alright Mama
TTITLE8=Trouble In Mind
TTITLE9=Poor Boy
TTITLE10=Walkin' By Myself
TTITLE11=Nobody Knows You...
EXTD=Bluesfestradio.com
EXTT0=
EXTT1=
EXTT2=
EXTT3=
EXTT4=
EXTT5=
EXTT6=
EXTT7=
EXTT8=
EXTT9=
EXTT10=
EXTT11=
PLAYORDER=
